<?xml version="1.0" encoding="UTF-8" standalone="no"?>
<!DOCTYPE svg PUBLIC "-//W3C//DTD SVG 1.1//EN" "http://www.w3.org/Graphics/SVG/1.1/DTD/svg11.dtd">
<svg
  width="100%"
  height="100%"
  viewBox="0 0 278 20"
  version="1.1"
  xmlns="http://www.w3.org/2000/svg"
  xmlns:xlink="http://www.w3.org/1999/xlink"
  xml:space="preserve"
  xmlns:serif="http://www.serif.com/"
  style="fill-rule:evenodd;clip-rule:evenodd;stroke-linejoin:round;stroke-miterlimit:2;"
>
  <g transform="matrix(27,0,0,27,-1.753734,19.575)">
    <path
      d="M0.372,0.012c-0.025,0 -0.047,-0.003 -0.067,-0.009c-0.02,-0.006 -0.037,-0.014 -0.052,-0.025c-0.015,-0.011 -0.028,-0.023 -0.039,-0.037l-0.017,0.06l-0.133,-0l0,-0.72l0.15,0l0,0.282c0.016,-0.023 0.036,-0.041 0.062,-0.056c0.025,-0.015 0.057,-0.022 0.095,-0.022c0.046,0 0.087,0.011 0.123,0.034c0.036,0.023 0.065,0.054 0.086,0.094c0.021,0.04 0.032,0.085 0.032,0.136c0,0.05 -0.011,0.095 -0.032,0.135c-0.021,0.04 -0.05,0.071 -0.086,0.094c-0.036,0.023 -0.077,0.034 -0.123,0.034Zm-0.038,-0.131c0.024,0 0.046,-0.006 0.065,-0.017c0.019,-0.011 0.034,-0.027 0.044,-0.047c0.011,-0.02 0.016,-0.043 0.016,-0.069c0,-0.026 -0.005,-0.049 -0.016,-0.069c-0.011,-0.02 -0.026,-0.036 -0.044,-0.047c-0.019,-0.011 -0.04,-0.017 -0.065,-0.017c-0.024,0 -0.046,0.006 -0.065,0.017c-0.019,0.011 -0.034,0.027 -0.044,0.047c-0.011,0.02 -0.016,0.043 -0.016,0.069c0,0.026 0.005,0.049 0.016,0.069c0.011,0.02 0.025,0.036 0.044,0.047c0.019,0.011 0.041,0.017 0.065,0.017Z"
      style="fill-rule:nonzero;"
    />
  </g>
  <g transform="matrix(27,0,0,27,14.797266,19.575)">
    <path
      d="M0.307,0.012c-0.048,0 -0.092,-0.011 -0.131,-0.034c-0.039,-0.023 -0.069,-0.054 -0.092,-0.094c-0.022,-0.04 -0.034,-0.085 -0.034,-0.136c0,-0.052 0.011,-0.097 0.034,-0.137c0.023,-0.04 0.053,-0.071 0.092,-0.093c0.039,-0.022 0.083,-0.034 0.131,-0.034c0.049,0 0.093,0.011 0.132,0.034c0.039,0.022 0.069,0.053 0.092,0.093c0.022,0.04 0.034,0.085 0.034,0.137c0,0.051 -0.011,0.097 -0.034,0.136c-0.023,0.04 -0.053,0.071 -0.092,0.093c-0.039,0.023 -0.083,0.034 -0.132,0.034Zm0,-0.13c0.02,0 0.038,-0.005 0.054,-0.015c0.016,-0.01 0.028,-0.025 0.037,-0.045c0.009,-0.02 0.014,-0.045 0.014,-0.074c0,-0.03 -0.005,-0.054 -0.014,-0.074c-0.009,-0.02 -0.021,-0.035 -0.037,-0.045c-0.016,-0.01 -0.033,-0.015 -0.053,-0.015c-0.02,0 -0.037,0.005 -0.053,0.015c-0.016,0.01 -0.028,0.025 -0.038,0.045c-0.009,0.02 -0.014,0.045 -0.014,0.074c0,0.029 0.005,0.054 0.014,0.074c0.009,0.02 0.022,0.035 0.037,0.045c0.016,0.01 0.033,0.015 0.053,0.015Z"
      style="fill-rule:nonzero;"
    />
  </g>
  <g transform="matrix(27,0,0,27,29.296266,19.575)">
    <path
      d="M0.019,-0l0.184,-0.252l-0.184,-0.251l0.162,0l0.116,0.162l0.116,-0.162l0.161,0l-0.184,0.251l0.184,0.252l-0.161,-0l-0.116,-0.164l-0.116,0.164l-0.162,-0Z"
      style="fill-rule:nonzero;"
    />
  </g>
  <g transform="matrix(27,0,0,27,43.201266,19.575)">
    <path
      d="M0.313,0.012c-0.052,0 -0.097,-0.011 -0.137,-0.033c-0.039,-0.022 -0.07,-0.052 -0.092,-0.091c-0.022,-0.039 -0.033,-0.084 -0.033,-0.134c0,-0.052 0.011,-0.099 0.033,-0.139c0.022,-0.041 0.052,-0.072 0.092,-0.096c0.039,-0.023 0.085,-0.035 0.138,-0.035c0.05,0 0.095,0.011 0.133,0.033c0.038,0.022 0.068,0.052 0.089,0.089c0.021,0.038 0.032,0.081 0.032,0.131c0,0.007 -0,0.014 -0,0.023c-0,0.008 -0.001,0.017 -0.002,0.026l-0.408,0l0,-0.088l0.258,0c-0.002,-0.028 -0.012,-0.05 -0.031,-0.067c-0.019,-0.017 -0.042,-0.025 -0.07,-0.025c-0.021,0 -0.041,0.005 -0.059,0.015c-0.018,0.01 -0.031,0.025 -0.041,0.045c-0.01,0.02 -0.015,0.046 -0.015,0.076l0,0.03c0,0.023 0.004,0.044 0.013,0.062c0.009,0.018 0.022,0.032 0.039,0.042c0.017,0.01 0.037,0.015 0.06,0.015c0.022,0 0.04,-0.004 0.054,-0.013c0.014,-0.009 0.025,-0.02 0.033,-0.035l0.154,0c-0.01,0.032 -0.026,0.06 -0.048,0.086c-0.023,0.026 -0.05,0.046 -0.083,0.061c-0.033,0.015 -0.069,0.023 -0.108,0.023Z"
      style="fill-rule:nonzero;"
    />
  </g>
  <g transform="matrix(27,0,0,27,58.375266,19.575)">
    <path
      d="M0.275,0.012c-0.047,0 -0.088,-0.008 -0.123,-0.023c-0.035,-0.015 -0.062,-0.036 -0.081,-0.061c-0.02,-0.026 -0.031,-0.055 -0.034,-0.088l0.149,0c0.003,0.011 0.008,0.021 0.015,0.03c0.007,0.009 0.017,0.016 0.029,0.021c0.012,0.005 0.026,0.008 0.042,0.008c0.016,-0 0.03,-0.002 0.04,-0.007c0.011,-0.004 0.018,-0.01 0.023,-0.018c0.005,-0.007 0.008,-0.015 0.008,-0.023c0,-0.012 -0.004,-0.022 -0.011,-0.028c-0.008,-0.007 -0.019,-0.012 -0.033,-0.016c-0.015,-0.004 -0.032,-0.009 -0.052,-0.013c-0.024,-0.005 -0.048,-0.012 -0.072,-0.018c-0.023,-0.007 -0.044,-0.016 -0.063,-0.026c-0.019,-0.011 -0.033,-0.025 -0.044,-0.041c-0.011,-0.017 -0.016,-0.038 -0.016,-0.063c0,-0.03 0.008,-0.057 0.025,-0.081c0.017,-0.024 0.041,-0.044 0.072,-0.058c0.032,-0.014 0.07,-0.021 0.114,-0.021c0.063,0 0.112,0.014 0.148,0.042c0.036,0.028 0.057,0.065 0.064,0.113l-0.14,0c-0.004,-0.013 -0.012,-0.023 -0.025,-0.03c-0.013,-0.007 -0.029,-0.011 -0.049,-0.011c-0.022,0 -0.038,0.004 -0.049,0.011c-0.011,0.007 -0.017,0.017 -0.017,0.028c0,0.008 0.004,0.016 0.012,0.022c0.008,0.006 0.019,0.012 0.034,0.017c0.015,0.005 0.033,0.009 0.054,0.014c0.041,0.008 0.076,0.018 0.105,0.028c0.03,0.01 0.053,0.025 0.069,0.044c0.017,0.019 0.025,0.046 0.025,0.082c0.001,0.033 -0.008,0.062 -0.026,0.087c-0.018,0.025 -0.043,0.045 -0.076,0.06c-0.033,0.014 -0.071,0.022 -0.116,0.022Z"
      style="fill-rule:nonzero;"
    />
  </g>
  <g transform="matrix(27,0,0,27,71.605266,19.575)">
    <path
      d="M0.135,0.005c-0.027,0 -0.049,-0.008 -0.066,-0.024c-0.017,-0.016 -0.025,-0.036 -0.025,-0.059c0,-0.024 0.008,-0.044 0.025,-0.061c0.017,-0.016 0.039,-0.024 0.066,-0.024c0.027,0 0.049,0.008 0.065,0.024c0.017,0.016 0.025,0.037 0.025,0.061c0,0.023 -0.008,0.043 -0.025,0.059c-0.017,0.016 -0.038,0.024 -0.065,0.024Z"
      style="fill-rule:nonzero;"
    />
  </g>
  <g transform="matrix(27,0,0,27,77.275266,19.575)">
    <path
      d="M0.163,-0l-0.148,-0.504l0.148,0l0.094,0.403l-0.028,-0.001l0.108,-0.402l0.166,0l0.108,0.402l-0.028,0.001l0.094,-0.403l0.148,0l-0.148,0.504l-0.156,-0l-0.116,-0.413l0.031,0l-0.116,0.413l-0.156,-0Z"
      style="fill-rule:nonzero;"
    />
  </g>
  <g transform="matrix(27,0,0,27,98.065266,19.575)">
    <path
      d="M0.313,0.012c-0.052,0 -0.097,-0.011 -0.137,-0.033c-0.039,-0.022 -0.07,-0.052 -0.092,-0.091c-0.022,-0.039 -0.033,-0.084 -0.033,-0.134c0,-0.052 0.011,-0.099 0.033,-0.139c0.022,-0.041 0.052,-0.072 0.092,-0.096c0.039,-0.023 0.085,-0.035 0.138,-0.035c0.05,0 0.095,0.011 0.133,0.033c0.038,0.022 0.068,0.052 0.089,0.089c0.021,0.038 0.032,0.081 0.032,0.131c0,0.007 -0,0.014 -0,0.023c-0,0.008 -0.001,0.017 -0.002,0.026l-0.408,0l0,-0.088l0.258,0c-0.002,-0.028 -0.012,-0.05 -0.031,-0.067c-0.019,-0.017 -0.042,-0.025 -0.07,-0.025c-0.021,0 -0.041,0.005 -0.059,0.015c-0.018,0.01 -0.031,0.025 -0.041,0.045c-0.01,0.02 -0.015,0.046 -0.015,0.076l0,0.03c0,0.023 0.004,0.044 0.013,0.062c0.009,0.018 0.022,0.032 0.039,0.042c0.017,0.01 0.037,0.015 0.06,0.015c0.022,0 0.04,-0.004 0.054,-0.013c0.014,-0.009 0.025,-0.02 0.033,-0.035l0.154,0c-0.01,0.032 -0.026,0.06 -0.048,0.086c-0.023,0.026 -0.05,0.046 -0.083,0.061c-0.033,0.015 -0.069,0.023 -0.108,0.023Z"
      style="fill-rule:nonzero;"
    />
  </g>
  <g transform="matrix(27,0,0,27,113.239266,19.575)">
    <path
      d="M0.372,0.012c-0.025,0 -0.047,-0.003 -0.067,-0.009c-0.02,-0.006 -0.037,-0.014 -0.052,-0.025c-0.015,-0.011 -0.028,-0.023 -0.039,-0.037l-0.017,0.06l-0.133,-0l0,-0.72l0.15,0l0,0.282c0.016,-0.023 0.036,-0.041 0.062,-0.056c0.025,-0.015 0.057,-0.022 0.095,-0.022c0.046,0 0.087,0.011 0.123,0.034c0.036,0.023 0.065,0.054 0.086,0.094c0.021,0.04 0.032,0.085 0.032,0.136c0,0.05 -0.011,0.095 -0.032,0.135c-0.021,0.04 -0.05,0.071 -0.086,0.094c-0.036,0.023 -0.077,0.034 -0.123,0.034Zm-0.038,-0.131c0.024,0 0.046,-0.006 0.065,-0.017c0.019,-0.011 0.034,-0.027 0.044,-0.047c0.011,-0.02 0.016,-0.043 0.016,-0.069c0,-0.026 -0.005,-0.049 -0.016,-0.069c-0.011,-0.02 -0.026,-0.036 -0.044,-0.047c-0.019,-0.011 -0.04,-0.017 -0.065,-0.017c-0.024,0 -0.046,0.006 -0.065,0.017c-0.019,0.011 -0.034,0.027 -0.044,0.047c-0.011,0.02 -0.016,0.043 -0.016,0.069c0,0.026 0.005,0.049 0.016,0.069c0.011,0.02 0.025,0.036 0.044,0.047c0.019,0.011 0.041,0.017 0.065,0.017Z"
      style="fill-rule:nonzero;"
    />
  </g>
  <g transform="matrix(27,0,0,27,129.790266,19.575)">
    <path
      d="M0.065,-0l0,-0.504l0.131,0l0.013,0.065c0.016,-0.023 0.037,-0.042 0.063,-0.056c0.026,-0.014 0.057,-0.021 0.092,-0.021c0.025,0 0.047,0.003 0.067,0.009c0.02,0.006 0.038,0.016 0.053,0.028c0.015,0.012 0.028,0.028 0.038,0.046c0.019,-0.026 0.044,-0.046 0.074,-0.061c0.03,-0.015 0.063,-0.022 0.098,-0.022c0.045,0 0.082,0.009 0.112,0.027c0.03,0.018 0.052,0.044 0.067,0.078c0.015,0.034 0.022,0.075 0.022,0.123l0,0.287l-0.149,-0l0,-0.274c0,-0.037 -0.007,-0.065 -0.022,-0.085c-0.014,-0.02 -0.037,-0.03 -0.068,-0.03c-0.02,0 -0.038,0.005 -0.053,0.015c-0.015,0.01 -0.027,0.024 -0.035,0.042c-0.008,0.018 -0.012,0.04 -0.012,0.065l0,0.268l-0.149,-0l0,-0.274c-0,-0.037 -0.007,-0.065 -0.022,-0.085c-0.015,-0.02 -0.038,-0.03 -0.07,-0.03c-0.019,0 -0.036,0.005 -0.051,0.015c-0.015,0.01 -0.027,0.024 -0.035,0.042c-0.008,0.018 -0.013,0.04 -0.013,0.065l0,0.268l-0.15,-0Z"
      style="fill-rule:nonzero;"
    />
  </g>
  <g transform="matrix(27,0,0,27,154.225266,19.575)">
    <path
      d="M0.237,0.012c-0.042,0 -0.077,-0.007 -0.104,-0.02c-0.027,-0.013 -0.048,-0.032 -0.061,-0.055c-0.013,-0.023 -0.02,-0.048 -0.02,-0.076c0,-0.03 0.008,-0.056 0.023,-0.079c0.015,-0.023 0.039,-0.042 0.07,-0.055c0.032,-0.013 0.072,-0.02 0.122,-0.02l0.121,0c0,-0.023 -0.003,-0.042 -0.008,-0.057c-0.005,-0.015 -0.015,-0.026 -0.027,-0.033c-0.013,-0.007 -0.03,-0.011 -0.052,-0.011c-0.023,0 -0.043,0.005 -0.059,0.014c-0.016,0.01 -0.026,0.024 -0.03,0.044l-0.144,0c0.004,-0.036 0.015,-0.068 0.036,-0.094c0.02,-0.027 0.047,-0.048 0.082,-0.063c0.034,-0.015 0.073,-0.023 0.117,-0.023c0.048,0 0.09,0.008 0.125,0.023c0.036,0.015 0.063,0.038 0.083,0.068c0.02,0.03 0.029,0.067 0.029,0.112l0,0.312l-0.125,-0l-0.018,-0.073c-0.007,0.013 -0.016,0.024 -0.026,0.035c-0.01,0.01 -0.022,0.019 -0.035,0.027c-0.013,0.008 -0.028,0.014 -0.044,0.018c-0.016,0.004 -0.034,0.006 -0.054,0.006Zm0.038,-0.114c0.016,0 0.029,-0.003 0.041,-0.008c0.012,-0.005 0.023,-0.012 0.031,-0.022c0.009,-0.009 0.016,-0.02 0.022,-0.033c0.006,-0.013 0.01,-0.026 0.012,-0.04l0,-0.001l-0.097,0c-0.017,0 -0.031,0.002 -0.042,0.007c-0.011,0.004 -0.019,0.011 -0.024,0.019c-0.005,0.008 -0.008,0.017 -0.008,0.028c0,0.011 0.003,0.021 0.008,0.028c0.006,0.008 0.013,0.013 0.023,0.017c0.01,0.004 0.021,0.006 0.033,0.006Z"
      style="fill-rule:nonzero;"
    />
  </g>
  <g transform="matrix(27,0,0,27,169.021266,19.575)">
    <path
      d="M0.314,0.012c-0.052,0 -0.098,-0.011 -0.137,-0.034c-0.04,-0.023 -0.071,-0.054 -0.093,-0.093c-0.022,-0.039 -0.033,-0.084 -0.033,-0.134c0,-0.052 0.011,-0.098 0.033,-0.138c0.022,-0.04 0.053,-0.071 0.093,-0.094c0.04,-0.023 0.085,-0.034 0.137,-0.034c0.066,0 0.121,0.017 0.166,0.052c0.045,0.035 0.074,0.083 0.086,0.144l-0.16,0c-0.006,-0.021 -0.017,-0.038 -0.034,-0.05c-0.017,-0.012 -0.037,-0.018 -0.06,-0.018c-0.022,0 -0.041,0.006 -0.058,0.017c-0.016,0.011 -0.029,0.027 -0.038,0.047c-0.009,0.02 -0.014,0.044 -0.014,0.072c0,0.021 0.003,0.039 0.008,0.056c0.005,0.017 0.013,0.031 0.022,0.043c0.01,0.012 0.021,0.021 0.035,0.028c0.013,0.006 0.028,0.01 0.045,0.01c0.016,0 0.03,-0.003 0.042,-0.008c0.013,-0.005 0.023,-0.013 0.032,-0.023c0.009,-0.01 0.015,-0.023 0.019,-0.037l0.16,0c-0.012,0.06 -0.041,0.108 -0.086,0.143c-0.045,0.035 -0.101,0.053 -0.166,0.053Z"
      style="fill-rule:nonzero;"
    />
  </g>
  <g transform="matrix(27,0,0,27,184.330266,19.575)">
    <path
      d="M0.065,-0l0,-0.72l0.15,0l0,0.288c0.016,-0.025 0.038,-0.045 0.065,-0.06c0.027,-0.015 0.059,-0.023 0.096,-0.023c0.043,0 0.078,0.009 0.107,0.027c0.029,0.018 0.05,0.044 0.065,0.078c0.015,0.034 0.022,0.076 0.022,0.125l0,0.286l-0.149,-0l0,-0.272c0,-0.037 -0.008,-0.066 -0.023,-0.086c-0.016,-0.021 -0.04,-0.031 -0.074,-0.031c-0.021,0 -0.039,0.005 -0.056,0.015c-0.017,0.01 -0.03,0.024 -0.039,0.042c-0.009,0.018 -0.014,0.04 -0.014,0.066l0,0.267l-0.15,-0Z"
      style="fill-rule:nonzero;"
    />
  </g>
  <g transform="matrix(27,0,0,27,199.990266,19.575)">
    <path
      d="M0.067,-0l0,-0.504l0.15,0l-0,0.504l-0.15,-0Zm0.075,-0.562c-0.027,0 -0.049,-0.008 -0.065,-0.023c-0.017,-0.016 -0.025,-0.035 -0.025,-0.058c0,-0.024 0.008,-0.043 0.025,-0.059c0.017,-0.015 0.039,-0.023 0.065,-0.023c0.027,0 0.049,0.008 0.066,0.023c0.017,0.015 0.025,0.035 0.025,0.059c0,0.023 -0.008,0.043 -0.025,0.058c-0.017,0.016 -0.039,0.023 -0.066,0.023Z"
      style="fill-rule:nonzero;"
    />
  </g>
  <g transform="matrix(27,0,0,27,206.308266,19.575)">
    <path
      d="M0.065,-0l0,-0.504l0.131,0l0.012,0.08c0.015,-0.028 0.037,-0.05 0.065,-0.067c0.028,-0.017 0.062,-0.025 0.102,-0.025c0.042,0 0.077,0.009 0.106,0.027c0.029,0.018 0.05,0.044 0.065,0.077c0.015,0.034 0.022,0.075 0.022,0.123l0,0.288l-0.149,-0l0,-0.274c0,-0.036 -0.008,-0.065 -0.023,-0.085c-0.015,-0.02 -0.04,-0.03 -0.074,-0.03c-0.021,0 -0.039,0.005 -0.055,0.015c-0.016,0.01 -0.029,0.023 -0.038,0.041c-0.009,0.018 -0.014,0.04 -0.014,0.065l0,0.269l-0.15,-0Z"
      style="fill-rule:nonzero;"
    />
  </g>
  <g transform="matrix(27,0,0,27,221.941266,19.575)">
    <path
      d="M0.313,0.012c-0.052,0 -0.097,-0.011 -0.137,-0.033c-0.039,-0.022 -0.07,-0.052 -0.092,-0.091c-0.022,-0.039 -0.033,-0.084 -0.033,-0.134c0,-0.052 0.011,-0.099 0.033,-0.139c0.022,-0.041 0.052,-0.072 0.092,-0.096c0.039,-0.023 0.085,-0.035 0.138,-0.035c0.05,0 0.095,0.011 0.133,0.033c0.038,0.022 0.068,0.052 0.089,0.089c0.021,0.038 0.032,0.081 0.032,0.131c0,0.007 -0,0.014 -0,0.023c-0,0.008 -0.001,0.017 -0.002,0.026l-0.408,0l0,-0.088l0.258,0c-0.002,-0.028 -0.012,-0.05 -0.031,-0.067c-0.019,-0.017 -0.042,-0.025 -0.07,-0.025c-0.021,0 -0.041,0.005 -0.059,0.015c-0.018,0.01 -0.031,0.025 -0.041,0.045c-0.01,0.02 -0.015,0.046 -0.015,0.076l0,0.03c0,0.023 0.004,0.044 0.013,0.062c0.009,0.018 0.022,0.032 0.039,0.042c0.017,0.01 0.037,0.015 0.06,0.015c0.022,0 0.04,-0.004 0.054,-0.013c0.014,-0.009 0.025,-0.02 0.033,-0.035l0.154,0c-0.01,0.032 -0.026,0.06 -0.048,0.086c-0.023,0.026 -0.05,0.046 -0.083,0.061c-0.033,0.015 -0.069,0.023 -0.108,0.023Z"
      style="fill-rule:nonzero;"
    />
  </g>
  <g transform="matrix(27,0,0,27,237.115266,19.575)">
    <path
      d="M0.275,0.012c-0.047,0 -0.088,-0.008 -0.123,-0.023c-0.035,-0.015 -0.062,-0.036 -0.081,-0.061c-0.02,-0.026 -0.031,-0.055 -0.034,-0.088l0.149,0c0.003,0.011 0.008,0.021 0.015,0.03c0.007,0.009 0.017,0.016 0.029,0.021c0.012,0.005 0.026,0.008 0.042,0.008c0.016,-0 0.03,-0.002 0.04,-0.007c0.011,-0.004 0.018,-0.01 0.023,-0.018c0.005,-0.007 0.008,-0.015 0.008,-0.023c0,-0.012 -0.004,-0.022 -0.011,-0.028c-0.008,-0.007 -0.019,-0.012 -0.033,-0.016c-0.015,-0.004 -0.032,-0.009 -0.052,-0.013c-0.024,-0.005 -0.048,-0.012 -0.072,-0.018c-0.023,-0.007 -0.044,-0.016 -0.063,-0.026c-0.019,-0.011 -0.033,-0.025 -0.044,-0.041c-0.011,-0.017 -0.016,-0.038 -0.016,-0.063c0,-0.03 0.008,-0.057 0.025,-0.081c0.017,-0.024 0.041,-0.044 0.072,-0.058c0.032,-0.014 0.07,-0.021 0.114,-0.021c0.063,0 0.112,0.014 0.148,0.042c0.036,0.028 0.057,0.065 0.064,0.113l-0.14,0c-0.004,-0.013 -0.012,-0.023 -0.025,-0.03c-0.013,-0.007 -0.029,-0.011 -0.049,-0.011c-0.022,0 -0.038,0.004 -0.049,0.011c-0.011,0.007 -0.017,0.017 -0.017,0.028c0,0.008 0.004,0.016 0.012,0.022c0.008,0.006 0.019,0.012 0.034,0.017c0.015,0.005 0.033,0.009 0.054,0.014c0.041,0.008 0.076,0.018 0.105,0.028c0.03,0.01 0.053,0.025 0.069,0.044c0.017,0.019 0.025,0.046 0.025,0.082c0.001,0.033 -0.008,0.062 -0.026,0.087c-0.018,0.025 -0.043,0.045 -0.076,0.06c-0.033,0.014 -0.071,0.022 -0.116,0.022Z"
      style="fill-rule:nonzero;"
    />
  </g>
  <g transform="matrix(27,0,0,27,250.345266,19.575)">
    <path
      d="M0.135,0.005c-0.027,0 -0.049,-0.008 -0.066,-0.024c-0.017,-0.016 -0.025,-0.036 -0.025,-0.059c0,-0.024 0.008,-0.044 0.025,-0.061c0.017,-0.016 0.039,-0.024 0.066,-0.024c0.027,0 0.049,0.008 0.065,0.024c0.017,0.016 0.025,0.037 0.025,0.061c0,0.023 -0.008,0.043 -0.025,0.059c-0.017,0.016 -0.038,0.024 -0.065,0.024Z"
      style="fill-rule:nonzero;"
    />
  </g>
  <g transform="matrix(27,0,0,27,256.231266,19.575)">
    <path
      d="M0.065,-0l0,-0.504l0.131,0l0.012,0.08c0.015,-0.028 0.037,-0.05 0.065,-0.067c0.028,-0.017 0.062,-0.025 0.102,-0.025c0.042,0 0.077,0.009 0.106,0.027c0.029,0.018 0.05,0.044 0.065,0.077c0.015,0.034 0.022,0.075 0.022,0.123l0,0.288l-0.149,-0l0,-0.274c0,-0.036 -0.008,-0.065 -0.023,-0.085c-0.015,-0.02 -0.04,-0.03 -0.074,-0.03c-0.021,0 -0.039,0.005 -0.055,0.015c-0.016,0.01 -0.029,0.023 -0.038,0.041c-0.009,0.018 -0.014,0.04 -0.014,0.065l0,0.269l-0.15,-0Z"
      style="fill-rule:nonzero;"
    />
  </g>
  <g transform="matrix(27,0,0,27,271.864266,19.575)">
    <rect x="0.065" y="-0.72" width="0.15" height="0.72" style="fill-rule:nonzero;" />
  </g>
  <g transform="matrix(27,0,0,27,279.424266,19.575)"></g>
</svg>
